<svg width="16" height="16" viewBox="0 0 16 16" fill="none" xmlns="http://www.w3.org/2000/svg">
<g id="mdi:google-plus" clip-path="url(#clip0_78_380)">
<path id="Vector" d="M15.0918 7.27673L13.8418 7.27673L13.8418 6.02673L12.5918 6.02673L12.5918 7.27673L11.3418 7.27673L11.3418 8.52673L12.5918 8.52673L12.5918 9.77673L13.8418 9.77673L13.8418 8.52673L15.0918 8.52673M5.7168 7.27673L5.7168 8.77673L8.2168 8.77673C8.0918 9.40173 7.4668 10.6517 5.7168 10.6517C4.2168 10.6517 3.0293 9.40173 3.0293 7.90173C3.0293 6.40173 4.2168 5.15173 5.7168 5.15173C6.5918 5.15173 7.1543 5.52673 7.4668 5.83923L8.6543 4.71423C7.9043 3.96423 6.9043 3.52673 5.7168 3.52673C3.2793 3.52673 1.3418 5.46423 1.3418 7.90173C1.3418 10.3392 3.2793 12.2767 5.7168 12.2767C8.2168 12.2767 9.9043 10.5267 9.9043 8.02673C9.9043 7.71423 9.9043 7.52673 9.8418 7.27673L5.7168 7.27673Z" fill="black" fill-opacity="0.8"/>
</g>
<defs>
<clipPath id="clip0_78_380">
<rect width="15" height="15" fill="white" transform="translate(0.716797 0.401733)"/>
</clipPath>
</defs>
</svg>
