<svg width="16" height="16" viewBox="0 0 16 16" fill="none" xmlns="http://www.w3.org/2000/svg">
<g id="mdi:instagram">
<path id="Vector" d="M5.50928 1.40213L10.7593 1.40213C12.7593 1.40213 14.3843 3.02713 14.3843 5.02713L14.3843 10.2771C14.3843 11.2385 14.0024 12.1606 13.3225 12.8404C12.6427 13.5202 11.7207 13.9021 10.7593 13.9021L5.50928 13.9021C3.50928 13.9021 1.88428 12.2771 1.88428 10.2771L1.88428 5.02713C1.88428 4.06572 2.2662 3.14369 2.94602 2.46387C3.62583 1.78405 4.54787 1.40213 5.50928 1.40213ZM5.38428 2.65213C4.78754 2.65213 4.21524 2.88918 3.79329 3.31114C3.37133 3.7331 3.13428 4.30539 3.13428 4.90213L3.13428 10.4021C3.13428 11.6459 4.14053 12.6521 5.38428 12.6521L10.8843 12.6521C11.481 12.6521 12.0533 12.4151 12.4753 11.9931C12.8972 11.5712 13.1343 10.9989 13.1343 10.4021L13.1343 4.90213C13.1343 3.65838 12.128 2.65213 10.8843 2.65213L5.38428 2.65213ZM11.4155 3.58963C11.6227 3.58963 11.8214 3.67194 11.968 3.81845C12.1145 3.96497 12.1968 4.16368 12.1968 4.37088C12.1968 4.57808 12.1145 4.77679 11.968 4.92331C11.8214 5.06982 11.6227 5.15213 11.4155 5.15213C11.2083 5.15213 11.0096 5.06982 10.8631 4.92331C10.7166 4.77679 10.6343 4.57808 10.6343 4.37088C10.6343 4.16368 10.7166 3.96497 10.8631 3.81845C11.0096 3.67194 11.2083 3.58963 11.4155 3.58963ZM8.13428 4.52713C8.96308 4.52713 9.75794 4.85637 10.344 5.44242C10.93 6.02847 11.2593 6.82333 11.2593 7.65213C11.2593 8.48093 10.93 9.27579 10.344 9.86184C9.75794 10.4479 8.96308 10.7771 8.13428 10.7771C7.30548 10.7771 6.51062 10.4479 5.92457 9.86184C5.33852 9.27579 5.00928 8.48093 5.00928 7.65213C5.00928 6.82333 5.33852 6.02847 5.92457 5.44242C6.51062 4.85637 7.30548 4.52713 8.13428 4.52713ZM8.13428 5.77713C7.637 5.77713 7.16008 5.97467 6.80845 6.3263C6.45682 6.67794 6.25928 7.15485 6.25928 7.65213C6.25928 8.14941 6.45682 8.62632 6.80845 8.97796C7.16008 9.32959 7.637 9.52713 8.13428 9.52713C8.63156 9.52713 9.10847 9.32959 9.4601 8.97796C9.81173 8.62632 10.0093 8.14941 10.0093 7.65213C10.0093 7.15485 9.81173 6.67794 9.4601 6.3263C9.10847 5.97467 8.63156 5.77713 8.13428 5.77713Z" fill="black" fill-opacity="0.8"/>
</g>
</svg>
