<svg width="25" height="25" viewBox="0 0 25 25" fill="none" xmlns="http://www.w3.org/2000/svg">
<g id="svg">
<path id="Vector" d="M10.25 13.9721C10.25 14.9421 11 15.7221 11.92 15.7221H13.8C14.6 15.7221 15.25 15.0421 15.25 14.1921C15.25 13.2821 14.85 12.9521 14.26 12.7421L11.25 11.6921C10.66 11.4821 10.26 11.1621 10.26 10.2421C10.26 9.40207 10.91 8.71207 11.71 8.71207H13.59C14.51 8.71207 15.26 9.49207 15.26 10.4621" stroke="#111827" stroke-width="1.5" stroke-linecap="round" stroke-linejoin="round"/>
<path id="Vector_2" d="M12.75 7.72208V16.7221" stroke="#111827" stroke-width="1.5" stroke-linecap="round" stroke-linejoin="round"/>
<path id="Vector_3" d="M22.75 12.2221C22.75 17.7421 18.27 22.2221 12.75 22.2221C7.23 22.2221 2.75 17.7421 2.75 12.2221C2.75 6.70208 7.23 2.22208 12.75 2.22208" stroke="#111827" stroke-width="1.5" stroke-linecap="round" stroke-linejoin="round"/>
<path id="Vector_4" d="M17.75 3.22208V7.22208H21.75" stroke="#111827" stroke-width="1.5" stroke-linecap="round" stroke-linejoin="round"/>
<path id="Vector_5" d="M22.75 2.22208L17.75 7.22208" stroke="#111827" stroke-width="1.5" stroke-linecap="round" stroke-linejoin="round"/>
</g>
</svg>
