<svg width="25" height="25" viewBox="0 0 25 25" fill="none" xmlns="http://www.w3.org/2000/svg">
<g id="svg">
<path id="Vector" d="M22.25 15.2221C22.25 19.0921 19.12 22.2221 15.25 22.2221L16.3 20.4721" stroke="#111827" stroke-width="1.5" stroke-linecap="round" stroke-linejoin="round"/>
<path id="Vector_2" d="M2.25 9.22208C2.25 5.35208 5.38 2.22208 9.25 2.22208L8.2 3.97208" stroke="#111827" stroke-width="1.5" stroke-linecap="round" stroke-linejoin="round"/>
<path id="Vector_3" d="M13.95 4.67203L17.9299 6.97202L21.8699 4.68204" stroke="#111827" stroke-width="1.5" stroke-linecap="round" stroke-linejoin="round"/>
<path id="Vector_4" d="M17.9299 11.0421V6.96207" stroke="#111827" stroke-width="1.5" stroke-linecap="round" stroke-linejoin="round"/>
<path id="Vector_5" d="M16.9901 2.43208L14.5901 3.76204C14.0501 4.06204 13.6001 4.82203 13.6001 5.44203V7.98207C13.6001 8.60207 14.0401 9.36206 14.5901 9.66206L16.9901 10.9921C17.5001 11.2821 18.3401 11.2821 18.8601 10.9921L21.2601 9.66206C21.8001 9.36206 22.2501 8.60207 22.2501 7.98207V5.44203C22.2501 4.82203 21.8101 4.06204 21.2601 3.76204L18.8601 2.43208C18.3501 2.15208 17.5101 2.15208 16.9901 2.43208Z" stroke="#111827" stroke-width="1.5" stroke-linecap="round" stroke-linejoin="round"/>
<path id="Vector_6" d="M2.6001 15.6721L6.5701 17.972L10.5201 15.6821" stroke="#111827" stroke-width="1.5" stroke-linecap="round" stroke-linejoin="round"/>
<path id="Vector_7" d="M6.57007 22.0421V17.9621" stroke="#111827" stroke-width="1.5" stroke-linecap="round" stroke-linejoin="round"/>
<path id="Vector_8" d="M5.64 13.4321L3.24001 14.7621C2.70001 15.0621 2.25 15.822 2.25 16.442V18.9821C2.25 19.6021 2.69001 20.3621 3.24001 20.6621L5.64 21.9921C6.15 22.2821 6.98999 22.2821 7.50999 21.9921L9.91 20.6621C10.45 20.3621 10.9 19.6021 10.9 18.9821V16.442C10.9 15.822 10.46 15.0621 9.91 14.7621L7.50999 13.4321C6.98999 13.1521 6.15 13.1521 5.64 13.4321Z" stroke="#111827" stroke-width="1.5" stroke-linecap="round" stroke-linejoin="round"/>
</g>
</svg>
