<svg width="24" height="25" viewBox="0 0 24 25" fill="none" xmlns="http://www.w3.org/2000/svg">
<g id="svg">
<path id="Vector" d="M12 14.2221H13C14.1 14.2221 15 13.3221 15 12.2221V2.22208H6C4.5 2.22208 3.19001 3.05207 2.51001 4.27207" stroke="#111827" stroke-width="1.5" stroke-linecap="round" stroke-linejoin="round"/>
<path id="Vector_2" d="M2 17.2221C2 18.8821 3.34 20.2221 5 20.2221H6C6 19.1221 6.9 18.2221 8 18.2221C9.1 18.2221 10 19.1221 10 20.2221H14C14 19.1221 14.9 18.2221 16 18.2221C17.1 18.2221 18 19.1221 18 20.2221H19C20.66 20.2221 22 18.8821 22 17.2221V14.2221H19C18.45 14.2221 18 13.7721 18 13.2221V10.2221C18 9.67208 18.45 9.22208 19 9.22208H20.29L18.58 6.23209C18.22 5.61209 17.56 5.22208 16.84 5.22208H15V12.2221C15 13.3221 14.1 14.2221 13 14.2221H12" stroke="#111827" stroke-width="1.5" stroke-linecap="round" stroke-linejoin="round"/>
<path id="Vector_3" d="M8 22.2221C9.10457 22.2221 10 21.3267 10 20.2221C10 19.1175 9.10457 18.2221 8 18.2221C6.89543 18.2221 6 19.1175 6 20.2221C6 21.3267 6.89543 22.2221 8 22.2221Z" stroke="#111827" stroke-width="1.5" stroke-linecap="round" stroke-linejoin="round"/>
<path id="Vector_4" d="M16 22.2221C17.1046 22.2221 18 21.3267 18 20.2221C18 19.1175 17.1046 18.2221 16 18.2221C14.8954 18.2221 14 19.1175 14 20.2221C14 21.3267 14.8954 22.2221 16 22.2221Z" stroke="#111827" stroke-width="1.5" stroke-linecap="round" stroke-linejoin="round"/>
<path id="Vector_5" d="M22 12.2221V14.2221H19C18.45 14.2221 18 13.7721 18 13.2221V10.2221C18 9.67208 18.45 9.22208 19 9.22208H20.29L22 12.2221Z" stroke="#111827" stroke-width="1.5" stroke-linecap="round" stroke-linejoin="round"/>
<path id="Vector_6" d="M2 8.22208H8" stroke="#111827" stroke-width="1.5" stroke-linecap="round" stroke-linejoin="round"/>
<path id="Vector_7" d="M2 11.2221H6" stroke="#111827" stroke-width="1.5" stroke-linecap="round" stroke-linejoin="round"/>
<path id="Vector_8" d="M2 14.2221H4" stroke="#111827" stroke-width="1.5" stroke-linecap="round" stroke-linejoin="round"/>
</g>
</svg>
