<svg width="25" height="25" viewBox="0 0 25 25" fill="none" xmlns="http://www.w3.org/2000/svg">
<g id="ic:baseline-phone">
<path id="Vector" d="M6.75579 11.1189C8.19882 13.9474 10.5213 16.2549 13.3528 17.7019L15.5505 15.4995C15.8202 15.2292 16.2201 15.1388 16.5702 15.2584C17.6906 15.6272 18.9008 15.8259 20.1408 15.8246C20.6908 15.824 21.1413 16.2735 21.1419 16.8235L21.1456 20.3135C21.1462 20.8635 20.6967 21.314 20.1467 21.3146C10.7567 21.3247 3.13857 13.7228 3.12851 4.33282C3.12792 3.78282 3.57744 3.33234 4.12744 3.33175L7.62744 3.328C8.17744 3.32741 8.62792 3.77693 8.62851 4.32693C8.62985 5.57693 8.83113 6.77672 9.20233 7.89632C9.31271 8.2462 9.23313 8.63629 8.95343 8.91659L6.75579 11.1189Z" fill="#001A23" fill-opacity="0.8"/>
</g>
</svg>
