<svg width="16" height="16" viewBox="0 0 16 16" fill="none" xmlns="http://www.w3.org/2000/svg">
<g id="mdi:twitter">
<path id="Vector" d="M14.7273 4.08102C14.2461 4.29977 13.7273 4.44352 13.1898 4.51227C13.7398 4.18102 14.1648 3.65602 14.3648 3.02477C13.8461 3.33727 13.2711 3.55602 12.6648 3.68102C12.1711 3.14352 11.4773 2.83102 10.6898 2.83102C9.22109 2.83102 8.02109 4.03102 8.02109 5.51227C8.02109 5.72477 8.04609 5.93102 8.08984 6.12477C5.86484 6.01227 3.88359 4.94352 2.56484 3.32477C2.33359 3.71852 2.20234 4.18102 2.20234 4.66852C2.20234 5.59977 2.67109 6.42477 3.39609 6.89352C2.95234 6.89352 2.53984 6.76852 2.17734 6.58102L2.17734 6.59977C2.17734 7.89977 3.10234 8.98727 4.32734 9.23102C3.93412 9.33911 3.52112 9.35409 3.12109 9.27477C3.29085 9.80757 3.6233 10.2738 4.07173 10.6079C4.52015 10.9419 5.062 11.1271 5.62109 11.1373C4.67339 11.8876 3.4986 12.2931 2.28984 12.2873C2.07734 12.2873 1.86484 12.2748 1.65234 12.2498C2.83984 13.0123 4.25234 13.456 5.76484 13.456C10.6898 13.456 13.3961 9.36852 13.3961 5.82477C13.3961 5.70602 13.3961 5.59352 13.3898 5.47477C13.9148 5.09977 14.3648 4.62477 14.7273 4.08102Z" fill="black" fill-opacity="0.8"/>
</g>
</svg>
